<svg xmlns="http://www.w3.org/2000/svg" width="84" height="27" viewBox="0 0 84 27"><g><g><g><path fill="#428bca" d="M17.57 23.14a3.446 3.446 0 0 1-3.573 3.444c-1.763-.063-3.344-1.497-3.322-3.495a3.429 3.429 0 0 1 3.496-3.397 3.433 3.433 0 0 1 3.4 3.448"/></g><g><path fill="#428bca" d="M14.136 10.446c1.838-.025 3.438 1.503 3.435 3.45a3.438 3.438 0 0 1-3.494 3.444 3.432 3.432 0 0 1-3.4-3.478c.014-1.987 1.654-3.453 3.459-3.416"/></g><g><path fill="#428bca" d="M7.689 23.13c.032 1.869-1.535 3.496-3.517 3.454a3.452 3.452 0 0 1-3.377-3.477 3.446 3.446 0 0 1 3.492-3.42c1.977.023 3.429 1.658 3.402 3.443"/></g><g><path fill="#428bca" d="M14.104 8.09a3.437 3.437 0 0 1-3.43-3.521c.04-1.853 1.516-3.382 3.46-3.375 1.986.006 3.442 1.608 3.437 3.453a3.439 3.439 0 0 1-3.467 3.443"/></g><g><path fill="#428bca" d="M7.689 13.889c.03 1.804-1.434 3.424-3.394 3.449a3.448 3.448 0 0 1-3.5-3.498c.027-1.93 1.64-3.431 3.51-3.397 1.839.03 3.408 1.556 3.384 3.446"/></g><g><path fill="#428bca" d="M4.237 8.09a3.443 3.443 0 0 1-3.44-3.394 3.435 3.435 0 0 1 3.447-3.5C6.247 1.193 7.75 2.854 7.69 4.752 7.635 6.54 6.162 8.098 4.237 8.09"/></g><g><path fill="#428bca" d="M24.015 10.448c1.79-.027 3.439 1.436 3.434 3.449a3.432 3.432 0 0 1-3.451 3.445 3.44 3.44 0 0 1-3.443-3.452c0-1.963 1.617-3.481 3.46-3.442"/></g><g><path fill="#428bca" d="M24.007 8.09a3.439 3.439 0 0 1-3.452-3.44c-.004-1.87 1.473-3.456 3.448-3.456a3.417 3.417 0 0 1 3.445 3.444 3.426 3.426 0 0 1-3.441 3.452"/></g><g><path fill="#428bca" d="M20.555 23.132a3.437 3.437 0 0 1 3.505-3.443 3.426 3.426 0 0 1 3.388 3.447 3.43 3.43 0 0 1-3.57 3.445 3.436 3.436 0 0 1-3.323-3.45"/></g><g><path fill="#428bca" d="M37.574 1.11h-7.418v15.164h3.884V4.992h3.53a3.725 3.725 0 0 1 3.669 3.712v7.569h3.883v-7.57c0-4.186-3.386-7.593-7.548-7.593"/></g><g><path fill="#428bca" d="M59.326 1.11h-7.42v15.164h3.884V4.992h3.526a3.726 3.726 0 0 1 3.674 3.712v7.569h3.88v-7.57c0-4.186-3.38-7.593-7.544-7.593"/></g><g><path fill="#428bca" d="M46.525 16.274V1.159h3.884v15.115z"/></g><g><path fill="#428bca" d="M72.1 6.988c.116-1.384 1.66-2.473 3.557-2.473 1.749 0 3.179 1.119 3.179 2.473zm11.106 1.446c0-4.187-3.002-7.544-7.55-7.544-4.577 0-7.96 3.036-7.96 7.782v.118c0 4.659 3.267 7.695 8.049 7.695 2.243 0 4.372-.684 6.322-2.716l-2.535-2.445c-1.02.974-2.067 1.447-3.587 1.447-2.303 0-3.816-1.151-3.905-2.92h11.107c.059-.682.059-1.417.059-1.417"/></g><g opacity=".75"><path fill="#428bca" d="M31.154 23.84a1.32 1.32 0 0 0-1.318 1.323 1.32 1.32 0 1 0 2.638 0c0-.728-.592-1.323-1.32-1.323"/></g><g opacity=".75"><path fill="#428bca" d="M36.913 20.206c.729 0 1.276.319 1.726 1.009l.18.277 2.059-1.223-.213-.302c-.936-1.361-2.166-2.023-3.752-2.023-1.718 0-2.794.752-3.397 1.38a4.459 4.459 0 0 0-1.217 3.044 4.45 4.45 0 0 0 1.217 3.045c1.092 1.139 2.45 1.378 3.397 1.378 1.528 0 2.97-.78 3.762-2.031l.19-.3-2.05-1.217-.178.282c-.425.67-1.007 1.009-1.724 1.009-1.233 0-2.163-.933-2.163-2.17.002-1.23.93-2.158 2.163-2.158"/></g><g opacity=".75"><path fill="#428bca" d="M45.5 24.536c-1.233 0-2.166-.934-2.166-2.17 0-1.231.933-2.162 2.167-2.162 1.233 0 2.163.93 2.163 2.163 0 1.236-.93 2.169-2.163 2.169m0-6.593c-1.72 0-2.8.75-3.398 1.38a4.444 4.444 0 0 0-1.215 3.044c0 1.128.44 2.237 1.215 3.044 1.09 1.14 2.45 1.378 3.398 1.378 1.718 0 2.797-.748 3.397-1.378a4.447 4.447 0 0 0 1.218-3.044 4.456 4.456 0 0 0-1.218-3.044c-1.09-1.136-2.45-1.38-3.397-1.38"/></g><g opacity=".75"><path fill="#428bca" d="M64.483 24.144a1.32 1.32 0 1 0 0 2.64 1.32 1.32 0 0 0 0-2.64"/></g><g opacity=".75"><path fill="#428bca" d="M72.044 18.614c-.562-.427-1.314-.671-2.146-.671-2.656 0-4.438 2.29-4.438 4.424a4.57 4.57 0 0 0 1.142 3.02c.805.903 1.949 1.402 3.218 1.402.83 0 1.62-.26 2.226-.705v.5H74.4v-8.43h-2.354v.46zm-2.02 5.922c-1.168 0-2.118-.973-2.118-2.17 0-1.193.95-2.162 2.119-2.162 1.128 0 2.085.989 2.085 2.163s-.958 2.169-2.085 2.169"/></g><g opacity=".75"><path fill="#428bca" d="M80.582 18.156v4.677c0 .913-.66 1.606-1.526 1.606-.87 0-1.527-.688-1.527-1.606v-4.677h-2.352v4.82c0 1.11.425 2.107 1.189 2.809.717.646 1.67 1.006 2.689 1.006 1.02 0 1.975-.36 2.686-1.006.77-.701 1.194-1.697 1.194-2.81v-4.82z"/></g><g opacity=".75"><path fill="#428bca" d="M61.787 18.862c-.581-.59-1.471-.92-2.386-.92-.848 0-1.862.433-2.271 1.044-.381-.685-1.313-1.043-2.217-1.043-.718 0-1.477.35-1.896.679v-.466H50.66v8.43h2.357v-5.182c.002-.696.7-1.103 1.259-1.103.698 0 1.257.434 1.257 1.332v4.952h2.353v-4.952c0-.961.537-1.332 1.245-1.332.559 0 1.247.444 1.247 1.11v5.174h2.354v-5.19c0-1.027-.33-1.9-.945-2.533"/></g></g></g></svg>